HIERARCHY
ROOT SpineBase
{
  OFFSET 0.000000 0.000000 0.000000
  CHANNELS 6 Xposition Yposition Zposition Zrotation Xrotation Yrotation
  JOINT SpineMid
  {
    OFFSET 0.000000 25.445851 0.000000
    CHANNELS 3 Zrotation Xrotation Yrotation
    JOINT SpineShoulder
    {
      OFFSET -0.281715 18.810301 -0.806604
      CHANNELS 3 Zrotation Xrotation Yrotation
      JOINT Neck
      {
        OFFSET -0.160231 6.214378 -0.443818
        CHANNELS 3 Zrotation Xrotation Yrotation
        JOINT Head
        {
          OFFSET -0.180530 9.159180 6.939682
          CHANNELS 3 Zrotation Xrotation Yrotation
          End Site
          {
            OFFSET 0 0 0
          }
        }
      }
      JOINT ShoulderLeft
      {
        OFFSET -3.171624 -0.371120 -4.641681
        CHANNELS 3 Zrotation Xrotation Yrotation
        JOINT ElbowLeft
        {
          OFFSET -5.775252 -27.302304 0.244350
          CHANNELS 3 Zrotation Xrotation Yrotation
          JOINT WristLeft
          {
            OFFSET 1.425722 -19.102473 13.340711
            CHANNELS 3 Zrotation Xrotation Yrotation
            JOINT HandLeft
            {
              OFFSET -1.380748 -4.525179 1.369445
              CHANNELS 3 Zrotation Xrotation Yrotation
              JOINT HandTipLeft
              {
                OFFSET 1.254048 -3.638114 0.041711
                CHANNELS 3 Zrotation Xrotation Yrotation
                End Site
                {
                  OFFSET 0 0 0
                }
              }
              JOINT ThumbLeft
              {
                OFFSET 3.070125 -0.010941 -1.748281
                CHANNELS 3 Zrotation Xrotation Yrotation
                End Site
                {
                  OFFSET 0 0 0
                }
              }
            }
          }
        }
      }
      JOINT ShoulderRight
      {
        OFFSET 6.467726 -1.908167 -5.509964
        CHANNELS 3 Zrotation Xrotation Yrotation
        JOINT ElbowRight
        {
          OFFSET -13.920323 -19.830748 -1.003655
          CHANNELS 3 Zrotation Xrotation Yrotation
          JOINT WristRight
          {
            OFFSET -5.426263 -17.320930 8.697549
            CHANNELS 3 Zrotation Xrotation Yrotation
            JOINT HandRight
            {
              OFFSET -0.113831 -5.379761 3.919081
              CHANNELS 3 Zrotation Xrotation Yrotation
              JOINT HandTipRight
              {
                OFFSET -0.432177 -4.377640 2.125490
                CHANNELS 3 Zrotation Xrotation Yrotation
                End Site
                {
                  OFFSET 0 0 0
                }
              }
              JOINT ThumbRight
              {
                OFFSET -1.527085 0.958580 -0.414937
                CHANNELS 3 Zrotation Xrotation Yrotation
                End Site
                {
                  OFFSET 0 0 0
                }
              }
            }
          }
        }
      }
    }
  }
  JOINT HipLeft
  {
    OFFSET -5.734560 0.097775 -1.551080
    CHANNELS 3 Zrotation Xrotation Yrotation
    JOINT KneeLeft
    {
      OFFSET 18.596701 -36.442060 -7.301643
      CHANNELS 3 Zrotation Xrotation Yrotation
      JOINT AnkleLeft
      {
        OFFSET 7.178847 -22.351453 5.956199
        CHANNELS 3 Zrotation Xrotation Yrotation
        JOINT FootLeft
        {
          OFFSET -4.932165 -8.789649 -7.016235
          CHANNELS 3 Zrotation Xrotation Yrotation
          End Site
          {
            OFFSET 0 0 0
          }
        }
      }
    }
  }
  JOINT HipRight
  {
    OFFSET 4.217897 2.000706 -4.208614
    CHANNELS 3 Zrotation Xrotation Yrotation
    JOINT KneeRight
    {
      OFFSET 1.140068 -37.180263 -5.560586
      CHANNELS 3 Zrotation Xrotation Yrotation
      JOINT AnkleRight
      {
        OFFSET 7.549297 -32.347923 -0.736526
        CHANNELS 3 Zrotation Xrotation Yrotation
        JOINT FootRight
        {
          OFFSET -1.151358 -2.135262 -12.433374
          CHANNELS 3 Zrotation Xrotation Yrotation
          End Site
          {
            OFFSET 0 0 0
          }
        }
      }
    }
  }
}
MOTION
Frames: 8
Frame Time: 0.033333
80.177954 76.603876 292.510845 -0.000000 0.000000 14.950472 -0.000000 0.000000 -14.950472 -0.000000 0.000000 0.000000 -0.000000 0.000000 0.000000 0.000000 0.000000 0.000000 -0.000000 0.000000 0.000000 -0.000000 0.000000 0.000000 -0.000000 0.000000 0.000000 -0.000000 0.000000 0.000000 0.000000 0.000000 0.000000 0.000000 0.000000 0.000000 -0.000000 0.000000 0.000000 -0.000000 0.000000 0.000000 -0.000000 0.000000 0.000000 -0.000000 0.000000 0.000000 0.000000 0.000000 0.000000 0.000000 0.000000 0.000000 -0.000000 0.000000 -14.950472 -0.000000 0.000000 0.000000 -0.000000 0.000000 0.000000 0.000000 0.000000 0.000000 -0.000000 0.000000 -14.950472 -0.000000 0.000000 0.000000 -0.000000 0.000000 0.000000 0.000000 0.000000 0.000000
80.347315 76.288188 292.064619 0.054771 0.618446 15.078239 -0.213775 -0.582904 -15.079622 -0.000000 0.000000 0.000000 -0.000000 0.000000 0.000000 0.000000 0.000000 0.000000 -0.000000 0.000000 0.000000 -0.513023 -1.228611 -0.452250 1.215841 12.332038 -2.902176 -5.387822 -7.195070 3.814536 0.000000 0.000000 0.000000 0.000000 0.000000 0.000000 -0.000000 0.000000 0.000000 0.549020 1.740208 -0.280420 -2.806700 -0.363061 -1.467782 4.313099 4.302111 2.186355 0.000000 0.000000 0.000000 0.000000 0.000000 0.000000 -0.213775 -0.582904 -15.079622 -0.744110 -1.501900 -0.689476 0.726237 1.510621 0.670148 0.000000 0.000000 0.000000 -0.530404 -1.350839 -15.094405 0.105732 0.823875 0.008680 0.612190 -8.765988 2.211274 0.000000 0.000000 0.000000
80.477600 76.036380 291.695123 0.102652 1.143073 15.163190 -0.398124 -1.076415 -15.167954 -0.000000 0.000000 0.000000 0.573141 0.641686 -0.422981 0.000000 0.000000 0.000000 -0.000000 0.000000 0.000000 -0.992768 -2.072043 -0.855691 2.427952 22.766546 -5.726986 -11.094188 -12.870264 5.928121 0.000000 0.000000 0.000000 0.000000 0.000000 0.000000 -0.000000 0.000000 0.000000 1.043572 3.270771 -0.539977 -5.236566 -0.851427 -2.832648 7.710310 7.862101 4.057535 0.000000 0.000000 0.000000 0.000000 0.000000 0.000000 -0.398124 -1.076415 -15.167954 -1.262397 -2.320627 -1.105339 1.218428 2.344002 1.054841 0.000000 0.000000 0.000000 -0.976720 -2.497661 -15.204911 0.185618 1.523130 0.016445 1.750934 -18.563293 4.679065 0.000000 0.000000 0.000000
80.568808 75.848450 291.402357 0.143868 1.576513 15.188198 -0.360291 -0.342772 -15.181912 0.027147 0.005555 0.011559 0.603901 -0.422876 -0.391150 0.000000 0.000000 0.000000 -0.794690 -1.517428 0.025045 -0.553782 -2.163664 -1.265035 3.361021 30.602581 -8.141656 -16.523552 -16.480979 6.684178 0.000000 0.000000 0.000000 0.000000 0.000000 0.000000 -0.873671 -1.170280 0.015751 2.445497 4.602677 -0.832140 -7.314196 -1.469766 -4.076723 10.417454 10.858438 5.646352 0.000000 0.000000 0.000000 0.000000 0.000000 0.000000 -0.552014 -1.483723 -15.197326 -1.542792 -2.468969 -1.235702 1.490626 2.500797 1.169916 0.000000 0.000000 0.000000 -1.335075 -3.444006 -15.259401 0.239597 2.096978 0.024021 3.212908 -27.280064 6.857328 0.000000 0.000000 0.000000
80.620941 75.724400 291.186321 0.178598 1.920835 15.140624 -0.302194 -0.280046 -15.125641 0.041480 0.020853 0.019940 -0.002594 -1.592433 -0.041242 0.000000 0.000000 0.000000 -1.071946 -1.880031 -0.022247 -0.758664 -2.296541 -1.532353 3.693065 35.715383 -9.854984 -20.206417 -18.503113 6.987328 0.000000 0.000000 0.000000 0.000000 0.000000 0.000000 -1.226977 -1.481217 -0.089218 3.080662 5.593497 -0.956608 -9.065148 -2.224306 -5.187013 12.605845 13.435879 6.966976 0.000000 0.000000 0.000000 0.000000 0.000000 0.000000 -0.674354 -1.807454 -15.154256 -1.584903 -1.960232 -1.078979 2.298536 1.910553 0.451498 0.000000 0.000000 0.000000 -1.601646 -4.193107 -15.240715 0.267657 2.545022 0.031967 4.249692 -32.441155 7.753748 0.000000 0.000000 0.000000
80.633997 75.664230 291.047016 0.206977 2.177545 15.012435 -0.156242 -0.129759 -14.984476 0.058403 0.042414 0.030590 -0.150306 -2.054020 -0.066313 0.000000 0.000000 0.000000 -1.354480 -2.171797 -0.096205 -0.965670 -2.132888 -1.715472 3.161908 38.224597 -10.680831 -19.904656 -20.196631 7.883111 0.000000 0.000000 0.000000 0.000000 0.000000 0.000000 -1.609334 -1.753740 -0.248908 3.616828 6.317379 -0.995487 -10.512494 -3.124034 -6.153525 14.404970 15.700963 8.024813 0.000000 0.000000 0.000000 0.000000 0.000000 0.000000 -0.533754 -3.196725 -15.658293 -1.921467 0.219533 0.025611 2.278072 0.802642 -0.084476 0.000000 0.000000 0.000000 -1.773577 -4.747419 -15.137310 0.269837 2.867171 0.040671 4.107716 -32.524516 6.548068 0.000000 0.000000 0.000000
80.526445 75.715597 291.148931 0.099470 2.019377 13.732683 0.248201 0.305431 -13.685324 0.037451 -0.032356 0.036103 -1.423885 -1.929180 0.720419 0.000000 0.000000 0.000000 -1.580714 -2.007540 -0.218384 -1.512387 -0.944220 -1.932690 1.628110 30.712001 -7.887302 -9.645366 -19.048765 9.608281 0.000000 0.000000 0.000000 0.000000 0.000000 0.000000 -1.913411 -1.659225 -0.536632 4.039401 6.492414 -0.761207 -12.302039 -3.933129 -7.496440 16.436220 17.232252 9.348587 0.000000 0.000000 0.000000 0.000000 0.000000 0.000000 -1.319957 -4.932765 -15.370432 -0.565743 6.177959 2.521723 1.689141 -3.544330 -1.658115 0.000000 0.000000 0.000000 -1.315957 -4.492797 -13.851021 0.106560 2.657255 0.062867 2.379683 -23.534671 2.190412 0.000000 0.000000 0.000000
80.422629 75.853457 291.233017 0.122206 2.044092 14.029354 0.562323 0.652275 -13.964581 0.099708 0.098660 0.056679 -2.909277 -3.057361 1.480565 0.000000 0.000000 0.000000 -1.968197 -2.110568 -0.373811 -1.136569 -0.574970 -1.568934 -3.238226 31.412312 -8.774351 18.351654 -32.535093 17.331948 0.000000 0.000000 0.000000 0.000000 0.000000 0.000000 -2.182949 -1.888584 -0.828613 4.305797 6.556621 -0.484089 -13.479885 -5.232753 -8.366527 19.448647 20.448592 10.388816 0.000000 0.000000 0.000000 0.000000 0.000000 0.000000 -1.915100 -6.392966 -16.481327 -0.455598 10.930802 4.419471 1.870815 -7.391486 -2.784472 0.000000 0.000000 0.000000 -1.327347 -4.598302 -14.159859 0.044276 2.738595 0.076037 1.244812 -11.826266 -1.841378 0.000000 0.000000 0.000000
